<svg width="60" height="60" viewBox="0 0 60 60" fill="none" xmlns="http://www.w3.org/2000/svg">
<rect width="60" height="60" rx="12" fill="url(#paint0_linear_83_837)"/>
<path d="M41.0552 30.887C36.3545 30.887 32.5446 34.6969 32.5446 39.3968C32.5446 44.097 36.3545 47.9078 41.0552 47.9078C45.7551 47.9078 49.565 44.097 49.565 39.3968C49.565 34.6969 45.7551 30.887 41.0552 30.887V30.887ZM18.9448 30.8874C14.2449 30.8878 10.4346 34.6969 10.4346 39.3972C10.4346 44.097 14.2449 47.9074 18.9448 47.9074C23.645 47.9074 27.4554 44.097 27.4554 39.3972C27.4554 34.6969 23.645 30.8874 18.9444 30.8874H18.9448ZM38.51 20.2492C38.51 24.9491 34.7001 28.7602 30.0002 28.7602C25.2995 28.7602 21.4896 24.9491 21.4896 20.2492C21.4896 15.5494 25.2995 11.739 30.0002 11.739C34.7001 11.739 38.5096 15.5494 38.5096 20.2492H38.51Z" fill="white"/>
<defs>
<linearGradient id="paint0_linear_83_837" x1="30" y1="0" x2="30" y2="60" gradientUnits="userSpaceOnUse">
<stop stop-color="#FA5A7C"/>
<stop offset="1" stop-color="#F9555C"/>
</linearGradient>
</defs>
</svg>
