<svg width="234" height="192" viewBox="0 0 234 192" fill="none" xmlns="http://www.w3.org/2000/svg">
<path d="M232.798 1H1V184.817H232.798V1Z" stroke="#263238" stroke-miterlimit="10" stroke-linecap="round" stroke-linejoin="round"/>
<path d="M225.974 6H5V180.078H225.974V6Z" stroke="#263238" stroke-miterlimit="10" stroke-linecap="round" stroke-linejoin="round"/>
<path d="M150.476 31.6309C150.476 31.6309 33.7506 28.8934 23.9269 34.8229C14.0727 40.7425 21.1201 149.163 26.7337 150.527C32.3472 151.891 189.862 152.8 205.33 150.982C220.798 149.163 199.716 38.9242 199.716 35.7321C199.716 32.5401 163.167 31.1763 163.167 31.1763" stroke="#263238" stroke-width="2" stroke-miterlimit="10" stroke-linecap="round" stroke-linejoin="round"/>
<path d="M28 121.285C28.2597 135.626 29.2661 146.138 31.6358 146.426C39.1022 147.338 197.715 151.454 202.227 146.882C206.707 142.31 190.248 39 190.248 39" stroke="#263238" stroke-width="2" stroke-miterlimit="10" stroke-linecap="round" stroke-linejoin="round"/>
<path d="M189 38.6859C189 38.6859 33.351 36.8747 31.7795 39.1387C30.8098 40.5857 27.9343 83.1007 28.0011 114" stroke="#263238" stroke-width="2" stroke-miterlimit="10" stroke-linecap="round" stroke-linejoin="round"/>
<path d="M48.709 46.9146H91.3336" stroke="#263238" stroke-width="2" stroke-miterlimit="10" stroke-linecap="round" stroke-linejoin="round"/>
<path d="M103.121 55H53V78.244H103.121V55Z" stroke="#CE701B" stroke-miterlimit="10"/>
<path d="M63.2283 55L55.0412 59.103L72.4361 56.3743L55.0412 63.6609L83.685 55.4548L55.0412 69.1283L93.9134 56.3743L53 73.2314L102.1 58.1935L53 78.244L102.1 63.6609L67.333 77.3344L103.121 68.6735L80.6232 76.8796L102.1 73.6862L97.9958 76.8796" stroke="#CE701B" stroke-miterlimit="10"/>
<path d="M103.121 87H53V110.244H103.121V87Z" stroke="#CE701B" stroke-miterlimit="10"/>
<path d="M63.2283 87L55.0412 91.103L72.4361 88.3743L55.0412 95.6609L83.685 87.4548L55.0412 101.128L93.9134 88.3743L53 105.231L102.1 90.1935L53 110.244L102.1 95.6609L67.333 109.334L103.121 100.674L80.6232 108.88L102.1 105.686L97.9958 108.88" stroke="#CE701B" stroke-miterlimit="10"/>
<path d="M72.5693 122.753H56.2725V140.53H72.5693V122.753Z" stroke="#CE701B" stroke-miterlimit="10"/>
<path d="M59.5941 122.753L56.933 125.887L62.5855 123.801L56.933 129.377L66.2468 123.099L56.933 133.559L69.5685 123.801L56.2725 136.693L72.2296 125.195L56.2725 140.53L72.2296 129.377L60.9246 139.828L72.5693 133.203L65.2466 139.482L72.2296 137.039L70.899 139.482" stroke="#CE701B" stroke-miterlimit="10"/>
<path d="M93.5693 122.753H77.2725V140.53H93.5693V122.753Z" stroke="#CE701B" stroke-miterlimit="10"/>
<path d="M80.5941 122.753L77.933 125.887L83.5855 123.801L77.933 129.377L87.2468 123.099L77.933 133.559L90.5685 123.801L77.2725 136.693L93.2296 125.195L77.2725 140.53L93.2296 129.377L81.9246 139.828L93.5693 133.203L86.2466 139.482L93.2296 137.039L91.899 139.482" stroke="#CE701B" stroke-miterlimit="10"/>
<path d="M114.569 122.753H98.2725V140.53H114.569V122.753Z" stroke="#CE701B" stroke-miterlimit="10"/>
<path d="M101.594 122.753L98.933 125.887L104.585 123.801L98.933 129.377L108.247 123.099L98.933 133.559L111.568 123.801L98.2725 136.693L114.23 125.195L98.2725 140.53L114.23 129.377L102.925 139.828L114.569 133.203L107.247 139.482L114.23 137.039L112.899 139.482" stroke="#CE701B" stroke-miterlimit="10"/>
<path d="M138.297 123H122V140.777H138.297V123Z" stroke="#CE701B" stroke-miterlimit="10"/>
<path d="M125.322 123L122.661 126.134L128.313 124.048L122.661 129.624L131.974 123.346L122.661 133.806L135.296 124.048L122 136.94L137.957 125.442L122 140.777L137.957 129.624L126.652 140.075L138.297 133.45L130.974 139.729L137.957 137.287L136.627 139.729" stroke="#CE701B" stroke-miterlimit="10"/>
<path d="M159.569 122.753H143.272V140.53H159.569V122.753Z" stroke="#CE701B" stroke-miterlimit="10"/>
<path d="M146.594 122.753L143.933 125.887L149.585 123.801L143.933 129.377L153.247 123.099L143.933 133.559L156.568 123.801L143.272 136.693L159.23 125.195L143.272 140.53L159.23 129.377L147.925 139.828L159.569 133.203L152.247 139.482L159.23 137.039L157.899 139.482" stroke="#CE701B" stroke-miterlimit="10"/>
<path d="M180.569 122.753H164.272V140.53H180.569V122.753Z" stroke="#CE701B" stroke-miterlimit="10"/>
<path d="M167.594 122.753L164.933 125.887L170.585 123.801L164.933 129.377L174.247 123.099L164.933 133.559L177.568 123.801L164.272 136.693L180.23 125.195L164.272 140.53L180.23 129.377L168.925 139.828L180.569 133.203L173.247 139.482L180.23 137.039L178.899 139.482" stroke="#CE701B" stroke-miterlimit="10"/>
<path d="M112 57H171.48" stroke="#263238" stroke-width="2" stroke-miterlimit="10" stroke-linecap="round" stroke-linejoin="round"/>
<path d="M112 64H174.48" stroke="#263238" stroke-width="2" stroke-miterlimit="10" stroke-linecap="round" stroke-linejoin="round"/>
<path d="M112 71H169.48" stroke="#263238" stroke-width="2" stroke-miterlimit="10" stroke-linecap="round" stroke-linejoin="round"/>
<path d="M112 78H176.48" stroke="#263238" stroke-width="2" stroke-miterlimit="10" stroke-linecap="round" stroke-linejoin="round"/>
<path d="M112 88H176.48" stroke="#263238" stroke-width="2" stroke-miterlimit="10" stroke-linecap="round" stroke-linejoin="round"/>
<path d="M112 95H176.48" stroke="#263238" stroke-width="2" stroke-miterlimit="10" stroke-linecap="round" stroke-linejoin="round"/>
<path d="M116 102H170.48" stroke="#263238" stroke-width="2" stroke-miterlimit="10" stroke-linecap="round" stroke-linejoin="round"/>
<path d="M115 109H174.48" stroke="#263238" stroke-width="2" stroke-miterlimit="10" stroke-linecap="round" stroke-linejoin="round"/>
<path d="M112 47H125.485" stroke="#263238" stroke-width="2" stroke-miterlimit="10" stroke-linecap="round" stroke-linejoin="round"/>
<path d="M129 47H142.485" stroke="#263238" stroke-width="2" stroke-miterlimit="10" stroke-linecap="round" stroke-linejoin="round"/>
<path d="M146 47H159.485" stroke="#263238" stroke-width="2" stroke-miterlimit="10" stroke-linecap="round" stroke-linejoin="round"/>
<path d="M163 47H176.485" stroke="#263238" stroke-width="2" stroke-miterlimit="10" stroke-linecap="round" stroke-linejoin="round"/>
<path d="M74.6324 143.712C74.6324 143.712 72.0184 157.841 89.8534 161.489" stroke="#263238" stroke-width="2" stroke-miterlimit="10" stroke-linecap="round" stroke-linejoin="round"/>
<path d="M87.2487 157.841L91.5989 161.944L85.5029 163.764" stroke="#263238" stroke-width="2" stroke-miterlimit="10" stroke-linecap="round" stroke-linejoin="round"/>
<path d="M135.511 151.819H118.979V170.051H135.511V151.819Z" fill="#CE701B"/>
<path d="M131.562 156.866L121.994 157.321" stroke="#263238" stroke-width="2" stroke-miterlimit="10" stroke-linecap="round" stroke-linejoin="round"/>
<path d="M131.562 160.514L121.994 160.969" stroke="#263238" stroke-width="2" stroke-miterlimit="10" stroke-linecap="round" stroke-linejoin="round"/>
<path d="M131.562 164.163L121.994 164.617" stroke="#263238" stroke-width="2" stroke-miterlimit="10" stroke-linecap="round" stroke-linejoin="round"/>
<path d="M156.704 150.245L140.285 152.274L142.323 170.379L158.741 168.351L156.704 150.245Z" fill="#CE701B"/>
<path d="M144.64 157.863L154.189 157.142" stroke="#263238" stroke-width="2" stroke-miterlimit="10" stroke-linecap="round" stroke-linejoin="round"/>
<path d="M145.046 161.482L154.596 160.76" stroke="#263238" stroke-width="2" stroke-miterlimit="10" stroke-linecap="round" stroke-linejoin="round"/>
<path d="M145.451 165.101L155.01 164.379" stroke="#263238" stroke-width="2" stroke-miterlimit="10" stroke-linecap="round" stroke-linejoin="round"/>
<path d="M179.021 149.228L162.603 151.256L164.64 169.362L181.059 167.333L179.021 149.228Z" fill="#CE701B"/>
<path d="M166.947 154.849L176.506 154.127" stroke="#263238" stroke-width="2" stroke-miterlimit="10" stroke-linecap="round" stroke-linejoin="round"/>
<path d="M167.354 158.477L176.913 157.755" stroke="#263238" stroke-width="2" stroke-miterlimit="10" stroke-linecap="round" stroke-linejoin="round"/>
<path d="M167.769 162.096L177.318 161.374" stroke="#263238" stroke-width="2" stroke-miterlimit="10" stroke-linecap="round" stroke-linejoin="round"/>
<path d="M111.478 153.153L95.0381 151.322L93.1988 169.452L109.639 171.282L111.478 153.153Z" fill="#CE701B"/>
<path d="M98.5264 156.828L107.991 158.341" stroke="#263238" stroke-width="2" stroke-miterlimit="10" stroke-linecap="round" stroke-linejoin="round"/>
<path d="M98.1582 160.457L107.623 161.97" stroke="#263238" stroke-width="2" stroke-miterlimit="10" stroke-linecap="round" stroke-linejoin="round"/>
<path d="M97.791 164.085L107.256 165.598" stroke="#263238" stroke-width="2" stroke-miterlimit="10" stroke-linecap="round" stroke-linejoin="round"/>
<path d="M232.788 184.817H1V191.026H232.788V184.817Z" fill="#263238" stroke="#263238" stroke-miterlimit="10" stroke-linecap="round" stroke-linejoin="round"/>
</svg>
