<svg width="234" height="192" viewBox="0 0 234 192" fill="none" xmlns="http://www.w3.org/2000/svg">
<path d="M232.798 1H1V184.817H232.798V1Z" stroke="#263238" stroke-miterlimit="10" stroke-linecap="round" stroke-linejoin="round"/>
<path d="M225.974 6H5V180.078H225.974V6Z" stroke="#263238" stroke-miterlimit="10" stroke-linecap="round" stroke-linejoin="round"/>
<path d="M54.7641 31.4222C54.7641 31.4222 18.6601 28.6835 15.6216 34.6156C12.5736 40.5379 14.7534 149.007 16.4897 150.371C18.2261 151.736 66.9467 152.645 71.731 150.826C76.5153 149.007 69.9946 38.7187 69.9946 35.5252C69.9946 32.3318 58.6897 30.9674 58.6897 30.9674" stroke="#263238" stroke-width="2" stroke-miterlimit="10" stroke-linecap="round" stroke-linejoin="round"/>
<path d="M64.5693 125.753H48.2725V143.53H64.5693V125.753Z" stroke="#CE701B" stroke-miterlimit="10"/>
<path d="M51.5941 125.753L48.933 128.887L54.5855 126.801L48.933 132.377L58.2468 126.099L48.933 136.559L61.5685 126.801L48.2725 139.693L64.2296 128.195L48.2725 143.53L64.2296 132.377L52.9246 142.828L64.5693 136.203L57.2466 142.482L64.2296 140.039L62.899 142.482" stroke="#CE701B" stroke-miterlimit="10"/>
<path d="M28.2291 54.6562L24.7471 58.7593L32.1453 56.0305L24.7471 63.3171L36.9296 55.111L24.7471 68.7846L41.2798 56.0305L23.8789 72.8876L44.7619 57.8497L23.8789 77.9003L44.7619 63.3171L29.9749 76.9907L45.1959 68.3298L35.6273 76.5359L44.7619 73.3424L43.0161 76.5359" stroke="#CE701B" stroke-miterlimit="10"/>
<path d="M45.1959 54.6562H23.8789V77.9003H45.1959V54.6562Z" stroke="#CE701B" stroke-miterlimit="10"/>
<path d="M19.3496 121.194C19.4251 135.491 19.7176 145.971 20.4065 146.258C22.5769 147.167 68.6836 151.27 69.9952 146.713C71.2975 142.155 66.5132 39.1631 66.5132 39.1631" stroke="#263238" stroke-width="2" stroke-miterlimit="10" stroke-linecap="round" stroke-linejoin="round"/>
<path d="M64.7681 38.7085C64.7681 38.7085 20.8412 36.8893 20.3977 39.1632C20.124 40.6166 19.3125 83.318 19.3314 114.353" stroke="#263238" stroke-width="2" stroke-miterlimit="10" stroke-linecap="round" stroke-linejoin="round"/>
<path d="M21.709 46.9146H64.3336" stroke="#263238" stroke-width="2" stroke-miterlimit="10" stroke-linecap="round" stroke-linejoin="round"/>
<path d="M60.4178 44.8486C57.8039 47.7356 60.4178 44.8486 62.1541 40.7258C63.8904 36.603 60.4178 41.5464 56.5017 44.8486C52.5855 48.1508 54.7654 45.6692 56.0676 41.1312C57.3698 36.5931 54.7654 41.1312 51.2833 44.0181C47.8012 46.9051 49.547 45.6692 50.8492 40.7159C52.1514 35.7626 50.8492 40.7159 45.6308 44.0181C40.4125 47.3203 43.0169 47.3203 45.6308 42.367C48.2447 37.4137 43.8945 42.367 39.1102 44.0181C34.3259 45.6692 39.1102 44.0181 40.8465 39.4801C42.5828 34.942 37.7986 40.7159 34.3259 43.1975C30.8439 45.6692 34.3259 43.1975 35.1941 40.3106C36.0622 37.4236 33.0237 41.1312 29.5416 44.8486C26.0596 48.5661 29.5416 44.8486 29.9757 41.5464C30.4098 38.2442 26.0596 46.9051 26.0596 46.9051C26.0596 46.9051 27.3618 38.6496 26.4936 40.7159C25.6255 42.7823 24.3232 44.4334 24.3232 44.4334" stroke="#CE701B" stroke-miterlimit="10"/>
<path d="M23.4453 86.561H65.2018" stroke="#263238" stroke-width="2" stroke-miterlimit="10" stroke-linecap="round" stroke-linejoin="round"/>
<path d="M23.0107 90.6641L64.3331 91.1189" stroke="#263238" stroke-width="2" stroke-miterlimit="10" stroke-linecap="round" stroke-linejoin="round"/>
<path d="M50 55H63.4847" stroke="#263238" stroke-width="2" stroke-miterlimit="10" stroke-linecap="round" stroke-linejoin="round"/>
<path d="M49.5459 61.4976H63.0306" stroke="#263238" stroke-width="2" stroke-miterlimit="10" stroke-linecap="round" stroke-linejoin="round"/>
<path d="M49.5459 66.9648H63.0306" stroke="#263238" stroke-width="2" stroke-miterlimit="10" stroke-linecap="round" stroke-linejoin="round"/>
<path d="M49.5459 72.4326H63.0306" stroke="#263238" stroke-width="2" stroke-miterlimit="10" stroke-linecap="round" stroke-linejoin="round"/>
<path d="M64.3331 93.3926H23.8789V113.898H64.3331V93.3926Z" stroke="#CE701B" stroke-miterlimit="10"/>
<path d="M23.4453 97.4956L29.0978 93.8474L22.5771 104.337L33.448 93.8474L23.8794 108.885L40.8462 93.3926L26.0592 111.624L44.3283 93.8474L30.4094 111.624L50.4148 93.3926L34.3256 113.443L54.3309 93.8474L39.1099 112.534L59.5493 93.3926L43.8942 113.443L64.3336 93.3926L49.5466 112.988L63.4655 100.234L54.3309 112.079L63.4655 105.702L61.6725 108.747L59.9834 111.624" stroke="#CE701B" stroke-miterlimit="10"/>
<path d="M25.625 119.375H63.0312" stroke="#263238" stroke-width="2" stroke-miterlimit="10" stroke-linecap="round" stroke-linejoin="round"/>
<path d="M24.7471 124.388H36.9296" stroke="#263238" stroke-width="2" stroke-miterlimit="10" stroke-linecap="round" stroke-linejoin="round"/>
<path d="M53.6324 145.712C53.6324 145.712 51.0184 159.841 68.8534 163.489" stroke="#263238" stroke-width="2" stroke-miterlimit="10" stroke-linecap="round" stroke-linejoin="round"/>
<path d="M66.2487 159.841L70.5989 163.944L64.5029 165.764" stroke="#263238" stroke-width="2" stroke-miterlimit="10" stroke-linecap="round" stroke-linejoin="round"/>
<path d="M72.7314 41.4471L102.588 37.6011" stroke="#263238" stroke-width="2" stroke-miterlimit="10" stroke-linecap="round" stroke-linejoin="round"/>
<path d="M96.9355 36.2368L104.324 37.1464L99.1059 42.1591" stroke="#263238" stroke-width="2" stroke-miterlimit="10" stroke-linecap="round" stroke-linejoin="round"/>
<path d="M122.533 26H106V44.2314H122.533V26Z" fill="#CE701B"/>
<path d="M119.584 31.0464L110.015 31.5012" stroke="#263238" stroke-width="2" stroke-miterlimit="10" stroke-linecap="round" stroke-linejoin="round"/>
<path d="M119.584 34.6948L110.015 35.1496" stroke="#263238" stroke-width="2" stroke-miterlimit="10" stroke-linecap="round" stroke-linejoin="round"/>
<path d="M119.584 38.3433L110.015 38.7981" stroke="#263238" stroke-width="2" stroke-miterlimit="10" stroke-linecap="round" stroke-linejoin="round"/>
<path d="M95.7038 75.2452L79.2852 77.2736L81.3228 95.3792L97.7414 93.3508L95.7038 75.2452Z" fill="#CE701B"/>
<path d="M83.6396 82.8634L93.1894 82.1416" stroke="#263238" stroke-width="2" stroke-miterlimit="10" stroke-linecap="round" stroke-linejoin="round"/>
<path d="M84.0459 86.4815L93.5956 85.7598" stroke="#263238" stroke-width="2" stroke-miterlimit="10" stroke-linecap="round" stroke-linejoin="round"/>
<path d="M84.4512 90.1006L94.0103 89.3789" stroke="#263238" stroke-width="2" stroke-miterlimit="10" stroke-linecap="round" stroke-linejoin="round"/>
<path d="M90.4782 153.153L74.0381 151.322L72.1988 169.452L88.639 171.282L90.4782 153.153Z" fill="#CE701B"/>
<path d="M77.5264 156.828L86.9912 158.341" stroke="#263238" stroke-width="2" stroke-miterlimit="10" stroke-linecap="round" stroke-linejoin="round"/>
<path d="M77.1582 160.457L86.623 161.97" stroke="#263238" stroke-width="2" stroke-miterlimit="10" stroke-linecap="round" stroke-linejoin="round"/>
<path d="M76.791 164.085L86.2558 165.598" stroke="#263238" stroke-width="2" stroke-miterlimit="10" stroke-linecap="round" stroke-linejoin="round"/>
<path d="M232.788 184.817H1V191.026H232.788V184.817Z" fill="#263238" stroke="#263238" stroke-miterlimit="10" stroke-linecap="round" stroke-linejoin="round"/>
<path d="M58.3223 81.1548L77.5778 81.5223" stroke="#263238" stroke-width="2" stroke-miterlimit="10" stroke-linecap="round" stroke-linejoin="round"/>
<path d="M73.9512 77.1615L80.587 82.1854L74.3272 84.501" stroke="#263238" stroke-width="2" stroke-miterlimit="10" stroke-linecap="round" stroke-linejoin="round"/>
</svg>
